<svg width="73" height="68" viewBox="0 0 73 68" fill="none" xmlns="http://www.w3.org/2000/svg">
<path d="M42.1921 12.6559C31.2345 6.2889 20.4362 6.65781 14.817 14.4872C0.0239952 34.3603 17.5391 48.1854 28.1458 52.6138C34.9711 53.9154 36.1276 47.2636 42.629 49.3253C53.9395 57.4784 65.0807 50.4415 63.9103 39.5846C61.8683 30.4133 58.2129 21.965 42.1921 12.6559Z" fill="#F2F6FF"/>
<rect x="18.1521" y="28.835" width="13.8696" height="13.6939" rx="0.5" stroke="#5770BE"/>
<rect x="18.1521" y="47.6104" width="13.8696" height="13.6939" rx="0.5" stroke="#5770BE"/>
<path d="M16 31.192L24.8214 40.5797L35 21.8042" stroke="#5770BE" stroke-linecap="round"/>
<rect x="39.1304" y="35.6816" width="32.2174" height="0.816326" fill="#5770BE"/>
<rect width="32.2174" height="0.816326" transform="matrix(1 0 0 -1 39.1304 55.2734)" fill="#5770BE"/>
</svg>
