<svg width="73" height="68" viewBox="0 0 73 68" fill="none" xmlns="http://www.w3.org/2000/svg">
<path d="M42.1921 12.6559C31.2345 6.2889 20.4362 6.65781 14.817 14.4872C0.0239952 34.3603 17.5391 48.1854 28.1458 52.6138C34.9711 53.9154 36.1276 47.2636 42.629 49.3253C53.9395 57.4784 65.0807 50.4415 63.9103 39.5846C61.8683 30.4133 58.2129 21.965 42.1921 12.6559Z" fill="#EBF6F8"/>
<path d="M58.2281 36.0758L52.8166 32.1898M10.5083 36.0758L16.2522 31.8652M16.2522 31.8652L33.5371 19.1946C33.8861 18.9387 34.3601 18.9364 34.7116 19.1888L52.8166 32.1898M16.2522 31.8652V57.5322C16.2522 58.0844 16.6999 58.5322 17.2522 58.5322H27.2348H41.5016H51.8166C52.3689 58.5322 52.8166 58.0844 52.8166 57.5322V32.1898" stroke="#4F6BC7" stroke-linecap="round"/>
<path d="M26.9783 37.5921C27.0119 37.413 27.0425 37.2357 27.07 37.0606L24.362 35.9976L21.1125 44.5019L24.0913 45.2992C24.2014 45.2271 24.3442 45.0421 24.5081 44.7677M26.9783 37.5921L31.6734 37.8579M26.9783 37.5921C26.4623 40.3482 25.2621 43.5047 24.5081 44.7677M31.6734 37.8579C34.9229 35.9976 36.5476 36.2633 38.714 37.5921L41.4219 37.3264M31.6734 37.8579C31.4568 38.0705 31.4026 39.1867 31.4026 39.7182C30.5902 39.984 30.0487 41.3128 30.5902 41.8443C32.215 42.3758 33.2981 41.5785 33.8397 40.2497C34.1105 39.984 34.9229 39.7182 35.4645 39.984C35.8977 40.1966 40.3387 43.9704 42.505 45.8307M41.4219 37.3264L44.1298 35.9976L48.1917 43.7046L44.9422 45.0334C44.7982 44.9628 44.6273 44.7762 44.4386 44.5019M41.4219 37.3264C42.0993 39.5424 43.4921 43.1257 44.4386 44.5019M44.4386 44.5019L42.505 45.8307M42.505 45.8307C43.5882 47.1595 42.2342 48.4883 41.4219 47.691M41.4219 47.691L36.0061 43.4389M41.4219 47.691C41.9635 48.2225 40.6095 50.6144 39.2555 49.2856L38.9529 49.0198M34.1105 44.7677L38.9529 49.0198M38.9529 49.0198C39.5263 49.5037 38.1724 51.1459 37.36 50.3486L36.5476 49.6963M34.3813 47.9568L36.5476 49.6963M34.3813 47.9568C33.948 47.319 33.1176 47.3367 32.7566 47.4253M34.3813 47.9568C34.3813 48.7541 33.8712 49.8703 33.5689 50.0829M36.5476 49.6963C36.0061 50.6144 34.6521 50.9333 33.5689 50.0829M33.5689 50.0829C32.7024 50.9333 31.1318 50.3486 31.4026 49.2856M24.5081 44.7677L26.2576 45.8307M26.2576 45.8307C26.5284 45.2992 27.2866 44.3424 28.1531 44.7677C28.5301 45.0143 28.6155 45.2801 28.5446 45.5649M26.2576 45.8307C25.7728 47.0201 26.8067 47.5707 27.6115 46.9109M28.5446 45.5649C28.4628 45.8938 28.1726 46.2482 27.8823 46.628C27.7971 46.7395 27.7059 46.8335 27.6115 46.9109M28.5446 45.5649C29.2363 44.7677 30.861 45.8307 30.5902 46.3622M30.5902 46.3622C30.3194 46.7166 29.7237 47.5316 29.5071 47.9568M30.5902 46.3622C31.6734 45.5649 32.7566 46.5748 32.7566 47.4253M29.5071 47.9568C28.9655 48.7541 26.7992 48.2568 27.6115 46.9109M29.5071 47.9568C28.6947 49.0198 30.861 50.0829 31.4026 49.2856M32.7566 47.4253C32.3955 47.9568 31.6192 49.073 31.4026 49.2856" stroke="#5770BE"/>
</svg>
