<svg width="73" height="68" viewBox="0 0 73 68" fill="none" xmlns="http://www.w3.org/2000/svg">
<path d="M42.1922 12.6559C31.2346 6.2889 20.4363 6.65781 14.8171 14.4872C0.0241173 34.3603 17.5392 48.1854 28.1459 52.6138C34.9712 53.9154 36.1278 47.2636 42.6292 49.3253C53.9396 57.4784 65.0808 50.4415 63.9104 39.5846C61.8684 30.4133 58.2131 21.965 42.1922 12.6559Z" fill="#F2F6FF"/>
<path d="M45.7001 22.8828C51.1001 22.8828 52.0001 24.7124 52.0001 27.4568C52.0001 28.4632 52.0001 30.1921 52.0001 33.4702M27.7001 22.8828C31.5285 22.8828 36.0254 22.8828 39.7755 22.8828M22.3001 22.8828C21.5925 22.8828 20.9839 22.8828 20.5001 22.8828C17.8001 22.8828 16.0001 25.6272 16.0001 27.4568C16.0001 29.3315 16.0001 30.8177 16.0001 33.4702M16.0001 33.4702C16.0001 39.8781 16.0001 48.2563 16.0001 50.3267C16.0001 53.9858 16.0001 56.7302 20.5001 56.7302C25.0001 56.7302 42.1001 56.7302 45.7001 56.7302C49.3001 56.7302 52.0001 54.9006 52.0001 50.3267C52.0001 47.4301 52.0001 39.1311 52.0001 33.4702M16.0001 33.4702H52.0001" stroke="#4F6BC7"/>
<rect x="21.9001" y="18.8086" width="6.2" height="11.8071" rx="3.1" stroke="#4F6BC7"/>
<rect x="39.9001" y="18.8086" width="6.2" height="11.8071" rx="3.1" stroke="#4F6BC7"/>
<path d="M30.8987 44.3088C30.752 44.3088 30.6237 44.2538 30.5137 44.1438C30.4037 44.0338 30.3487 43.9018 30.3487 43.7478V37.0378L29.5457 37.3788C29.421 37.4301 29.3037 37.4558 29.1937 37.4558C29.0324 37.4558 28.8967 37.4044 28.7867 37.3018C28.684 37.1991 28.6327 37.0671 28.6327 36.9058C28.6327 36.7884 28.662 36.6821 28.7207 36.5868C28.7794 36.4914 28.871 36.4218 28.9957 36.3778L30.7117 35.7618C30.7484 35.7471 30.785 35.7361 30.8217 35.7288C30.8584 35.7214 30.8914 35.7178 30.9207 35.7178C31.0894 35.7178 31.2214 35.7728 31.3167 35.8828C31.4194 35.9854 31.4707 36.1211 31.4707 36.2898V43.7478C31.4707 43.9018 31.4157 44.0338 31.3057 44.1438C31.1957 44.2538 31.06 44.3088 30.8987 44.3088Z" fill="#5770BE"/>
<path d="M37.5381 44.3088C37.3914 44.3088 37.2667 44.2538 37.1641 44.1438C37.0614 44.0338 37.0101 43.9018 37.0101 43.7478V42.3618H33.3471C33.1784 42.3618 33.0464 42.3104 32.9511 42.2078C32.8557 42.1051 32.8007 41.9878 32.7861 41.8558C32.7787 41.7164 32.8154 41.5918 32.8961 41.4818L37.1091 35.9598C37.1677 35.8864 37.2337 35.8278 37.3071 35.7838C37.3877 35.7398 37.4757 35.7178 37.5711 35.7178C37.7251 35.7178 37.8497 35.7728 37.9451 35.8828C38.0404 35.9928 38.0881 36.1284 38.0881 36.2898V41.3498H38.7481C38.9021 41.3498 39.0341 41.3864 39.1441 41.4598C39.2541 41.5331 39.3091 41.6651 39.3091 41.8558C39.3091 41.9951 39.2541 42.1161 39.1441 42.2188C39.0341 42.3141 38.9021 42.3618 38.7481 42.3618H38.0881V43.7478C38.0881 43.9018 38.0367 44.0338 37.9341 44.1438C37.8314 44.2538 37.6994 44.3088 37.5381 44.3088ZM37.0101 41.3498V37.7088L34.2381 41.3498H37.0101Z" fill="#5770BE"/>
<path d="M18.9697 54.8828C18.8083 54.8828 18.6763 54.8278 18.5737 54.7178C18.471 54.6151 18.4197 54.4831 18.4197 54.3218C18.4197 54.1531 18.471 54.0174 18.5737 53.9148C18.6763 53.8121 18.8083 53.7608 18.9697 53.7608C19.4023 53.7608 19.758 53.6214 20.0367 53.3428C20.3153 53.0641 20.4547 52.7121 20.4547 52.2868V46.8528C20.4547 46.6841 20.506 46.5484 20.6087 46.4458C20.7187 46.3431 20.8543 46.2918 21.0157 46.2918C21.1843 46.2918 21.32 46.3431 21.4227 46.4458C21.5253 46.5484 21.5767 46.6841 21.5767 46.8528V52.2868C21.5767 52.7928 21.463 53.2401 21.2357 53.6288C21.0157 54.0174 20.7113 54.3218 20.3227 54.5418C19.934 54.7691 19.483 54.8828 18.9697 54.8828ZM21.0157 45.3128C20.8177 45.3128 20.6453 45.2431 20.4987 45.1038C20.3593 44.9571 20.2897 44.7848 20.2897 44.5868C20.2897 44.3888 20.3593 44.2201 20.4987 44.0808C20.6453 43.9341 20.8177 43.8608 21.0157 43.8608C21.2137 43.8608 21.3823 43.9341 21.5217 44.0808C21.6683 44.2201 21.7417 44.3888 21.7417 44.5868C21.7417 44.7848 21.6683 44.9571 21.5217 45.1038C21.3823 45.2431 21.2137 45.3128 21.0157 45.3128Z" fill="#5770BE"/>
<path d="M25.9555 52.3528C25.3615 52.3528 24.8371 52.2244 24.3825 51.9678C23.9278 51.7038 23.5685 51.3444 23.3045 50.8898C23.0478 50.4278 22.9195 49.8998 22.9195 49.3058C22.9195 48.7044 23.0478 48.1764 23.3045 47.7218C23.5685 47.2598 23.9278 46.9004 24.3825 46.6438C24.8371 46.3798 25.3615 46.2478 25.9555 46.2478C26.5421 46.2478 27.0628 46.3798 27.5175 46.6438C27.9721 46.9004 28.3278 47.2598 28.5845 47.7218C28.8485 48.1764 28.9805 48.7044 28.9805 49.3058C28.9805 49.8998 28.8521 50.4278 28.5955 50.8898C28.3388 51.3444 27.9831 51.7038 27.5285 51.9678C27.0738 52.2244 26.5495 52.3528 25.9555 52.3528ZM25.9555 51.3628C26.3368 51.3628 26.6741 51.2748 26.9675 51.0988C27.2608 50.9228 27.4881 50.6808 27.6495 50.3728C27.8181 50.0648 27.9025 49.7091 27.9025 49.3058C27.9025 48.9024 27.8181 48.5468 27.6495 48.2388C27.4881 47.9234 27.2608 47.6778 26.9675 47.5018C26.6741 47.3258 26.3368 47.2378 25.9555 47.2378C25.5741 47.2378 25.2368 47.3258 24.9435 47.5018C24.6501 47.6778 24.4191 47.9234 24.2505 48.2388C24.0818 48.5468 23.9975 48.9024 23.9975 49.3058C23.9975 49.7091 24.0818 50.0648 24.2505 50.3728C24.4191 50.6808 24.6501 50.9228 24.9435 51.0988C25.2368 51.2748 25.5741 51.3628 25.9555 51.3628Z" fill="#5770BE"/>
<path d="M33.1803 52.3638C32.6743 52.3638 32.2196 52.2574 31.8163 52.0448C31.4203 51.8248 31.105 51.5058 30.8703 51.0878C30.643 50.6698 30.5293 50.1564 30.5293 49.5478V46.8418C30.5293 46.6804 30.5806 46.5484 30.6833 46.4458C30.7933 46.3358 30.929 46.2808 31.0903 46.2808C31.2516 46.2808 31.3836 46.3358 31.4863 46.4458C31.5963 46.5484 31.6513 46.6804 31.6513 46.8418V49.5478C31.6513 50.1711 31.8163 50.6294 32.1463 50.9228C32.4836 51.2088 32.9016 51.3518 33.4003 51.3518C33.7156 51.3518 33.9943 51.2894 34.2363 51.1648C34.4856 51.0401 34.6836 50.8714 34.8303 50.6588C34.977 50.4461 35.0503 50.2078 35.0503 49.9438V46.8418C35.0503 46.6731 35.1016 46.5374 35.2043 46.4348C35.3143 46.3321 35.45 46.2808 35.6113 46.2808C35.78 46.2808 35.9156 46.3321 36.0183 46.4348C36.121 46.5374 36.1723 46.6731 36.1723 46.8418V51.7478C36.1723 51.9091 36.121 52.0448 36.0183 52.1548C35.9156 52.2574 35.78 52.3088 35.6113 52.3088C35.45 52.3088 35.3143 52.2574 35.2043 52.1548C35.1016 52.0448 35.0503 51.9091 35.0503 51.7478V51.6268C34.823 51.8541 34.548 52.0338 34.2253 52.1658C33.9026 52.2978 33.5543 52.3638 33.1803 52.3638Z" fill="#5770BE"/>
<path d="M38.6984 52.3088C38.3317 52.3088 38.1483 52.1254 38.1483 51.7588V46.8418C38.1483 46.4751 38.3317 46.2918 38.6984 46.2918C39.065 46.2918 39.2484 46.4751 39.2484 46.8418V47.0508C39.4683 46.7941 39.736 46.5924 40.0513 46.4458C40.374 46.2991 40.7223 46.2258 41.0963 46.2258C41.5364 46.2258 41.8627 46.2991 42.0753 46.4458C42.2953 46.5851 42.3797 46.7538 42.3284 46.9518C42.2917 47.1058 42.2184 47.2084 42.1084 47.2598C41.9984 47.3038 41.87 47.3111 41.7234 47.2818C41.254 47.1864 40.8323 47.1791 40.4583 47.2598C40.0843 47.3404 39.7873 47.4908 39.5674 47.7108C39.3547 47.9308 39.2484 48.2094 39.2484 48.5468V51.7588C39.2484 52.1254 39.065 52.3088 38.6984 52.3088Z" fill="#5770BE"/>
<path d="M45.687 52.3528C45.1736 52.3528 44.697 52.2758 44.257 52.1218C43.8243 51.9604 43.487 51.7588 43.245 51.5168C43.135 51.3994 43.0873 51.2674 43.102 51.1208C43.124 50.9668 43.1973 50.8421 43.322 50.7468C43.4686 50.6294 43.6116 50.5818 43.751 50.6038C43.8976 50.6184 44.0223 50.6808 44.125 50.7908C44.2496 50.9301 44.4476 51.0621 44.719 51.1868C44.9976 51.3041 45.3056 51.3628 45.643 51.3628C46.0683 51.3628 46.391 51.2931 46.611 51.1538C46.8383 51.0144 46.9556 50.8348 46.963 50.6148C46.9703 50.3948 46.864 50.2041 46.644 50.0428C46.4313 49.8814 46.039 49.7494 45.467 49.6468C44.7263 49.5001 44.1873 49.2801 43.85 48.9868C43.52 48.6934 43.355 48.3341 43.355 47.9088C43.355 47.5348 43.465 47.2268 43.685 46.9848C43.905 46.7354 44.1873 46.5521 44.532 46.4348C44.8766 46.3101 45.236 46.2478 45.61 46.2478C46.094 46.2478 46.523 46.3248 46.897 46.4788C47.271 46.6328 47.568 46.8454 47.788 47.1168C47.8906 47.2341 47.9383 47.3588 47.931 47.4908C47.9236 47.6154 47.8613 47.7218 47.744 47.8098C47.6266 47.8904 47.4873 47.9161 47.326 47.8868C47.1646 47.8574 47.029 47.7914 46.919 47.6888C46.7356 47.5128 46.5376 47.3918 46.325 47.3258C46.1123 47.2598 45.8666 47.2268 45.588 47.2268C45.2653 47.2268 44.9903 47.2818 44.763 47.3918C44.543 47.5018 44.433 47.6631 44.433 47.8758C44.433 48.0078 44.466 48.1288 44.532 48.2388C44.6053 48.3414 44.7446 48.4368 44.95 48.5248C45.1553 48.6054 45.456 48.6861 45.852 48.7668C46.6806 48.9281 47.2526 49.1591 47.568 49.4598C47.8906 49.7531 48.052 50.1161 48.052 50.5488C48.052 50.8861 47.9603 51.1904 47.777 51.4618C47.601 51.7331 47.337 51.9494 46.985 52.1108C46.6403 52.2721 46.2076 52.3528 45.687 52.3528Z" fill="#5770BE"/>
</svg>
