<svg width="73" height="68" viewBox="0 0 73 68" fill="none" xmlns="http://www.w3.org/2000/svg">
<path d="M42.2936 12.6559C31.3361 6.2889 20.5378 6.65781 14.9186 14.4872C0.125558 34.3603 17.6407 48.1854 28.2474 52.6138C35.0727 53.9154 36.2292 47.2636 42.7306 49.3253C54.041 57.4784 65.1823 50.4415 64.0119 39.5846C61.9699 30.4133 58.3145 21.965 42.2936 12.6559Z" fill="#F2F6FF"/>
<path d="M39.25 57.0314C39.25 55.7015 37.9795 43.4761 36.8706 34.2625C36.7306 33.0992 35.1533 33.1163 35.0241 34.2808L32.5 57.0314C32.5 61.1397 39.25 61.1397 39.25 57.0314Z" stroke="#5770BE"/>
<path d="M34.8523 36.0775C17.9665 37.1739 14.4489 50.5881 14.4489 57.1604H7C7 47.7116 13.8011 29.8097 35.5 29.1289C55.5795 28.499 64 46.4518 64 57.1604C62.9636 57.1604 58.6023 57.1604 56.5511 57.1604C56.8686 50.0603 52.8326 36.8941 37.0833 36.0775" stroke="#5770BE"/>
<path d="M37.25 56.4223C37.25 57.4503 36.5597 58.1366 35.875 58.1366C35.1903 58.1366 34.5 57.4503 34.5 56.4223C34.5 55.3943 35.1903 54.708 35.875 54.708C36.5597 54.708 37.25 55.3943 37.25 56.4223Z" stroke="#5770BE"/>
</svg>
